<svg width="1200" height="780" viewBox="0 0 1200 780" fill="none" xmlns="http://www.w3.org/2000/svg">
  <rect width="1200" height="780" rx="28" fill="#0F172A"/>
  <rect x="36" y="36" width="1128" height="60" rx="12" fill="#111E35"/>
  <rect x="56" y="56" width="220" height="20" rx="10" fill="#4F7CFF"/>
  <rect x="920" y="56" width="220" height="20" rx="10" fill="#17305E"/>
  <rect x="36" y="124" width="280" height="620" rx="14" fill="#101B30"/>
  <rect x="336" y="124" width="828" height="620" rx="14" fill="#121F37"/>
  <rect x="60" y="156" width="232" height="44" rx="10" fill="#1B2B49"/>
  <rect x="60" y="220" width="232" height="14" rx="7" fill="#20365D"/>
  <rect x="60" y="252" width="180" height="14" rx="7" fill="#20365D"/>
  <rect x="360" y="156" width="780" height="120" rx="12" fill="#1A2D4E"/>
  <rect x="384" y="184" width="280" height="16" rx="8" fill="#77A0FF"/>
  <rect x="384" y="216" width="500" height="12" rx="6" fill="#2D4F84"/>
  <rect x="384" y="240" width="350" height="12" rx="6" fill="#2D4F84"/>
  <rect x="360" y="300" width="780" height="120" rx="12" fill="#1A2D4E"/>
  <rect x="384" y="328" width="260" height="16" rx="8" fill="#84DCC6"/>
  <rect x="384" y="360" width="540" height="12" rx="6" fill="#2D4F84"/>
  <rect x="384" y="384" width="420" height="12" rx="6" fill="#2D4F84"/>
  <rect x="360" y="444" width="780" height="276" rx="12" fill="#1A2D4E"/>
  <rect x="384" y="476" width="220" height="16" rx="8" fill="#FACC15"/>
  <rect x="384" y="508" width="680" height="12" rx="6" fill="#2D4F84"/>
  <rect x="384" y="532" width="680" height="12" rx="6" fill="#2D4F84"/>
  <rect x="384" y="556" width="520" height="12" rx="6" fill="#2D4F84"/>
  <rect x="384" y="604" width="180" height="44" rx="12" fill="#4F7CFF"/>
</svg>
