<svg width="1200" height="780" viewBox="0 0 1200 780" fill="none" xmlns="http://www.w3.org/2000/svg">
  <rect width="1200" height="780" rx="28" fill="#0B1224"/>
  <rect x="54" y="74" width="300" height="632" rx="16" fill="#172844"/>
  <rect x="450" y="74" width="300" height="632" rx="16" fill="#172844"/>
  <rect x="846" y="74" width="300" height="632" rx="16" fill="#172844"/>
  <rect x="86" y="110" width="236" height="22" rx="11" fill="#7DA6FF"/>
  <rect x="482" y="110" width="236" height="22" rx="11" fill="#84DCC6"/>
  <rect x="878" y="110" width="236" height="22" rx="11" fill="#FACC15"/>
  <rect x="86" y="170" width="236" height="96" rx="12" fill="#20365D"/>
  <rect x="86" y="288" width="236" height="96" rx="12" fill="#20365D"/>
  <rect x="86" y="406" width="236" height="96" rx="12" fill="#20365D"/>
  <rect x="86" y="524" width="236" height="96" rx="12" fill="#20365D"/>
  <rect x="482" y="200" width="236" height="120" rx="12" fill="#20365D"/>
  <rect x="482" y="356" width="236" height="120" rx="12" fill="#20365D"/>
  <rect x="878" y="260" width="236" height="140" rx="12" fill="#20365D"/>
  <rect x="878" y="438" width="236" height="140" rx="12" fill="#20365D"/>
  <path d="M324 218H430" stroke="#7DA6FF" stroke-width="8" stroke-linecap="round"/>
  <path d="M324 336H430" stroke="#7DA6FF" stroke-width="8" stroke-linecap="round"/>
  <path d="M324 454H430" stroke="#7DA6FF" stroke-width="8" stroke-linecap="round"/>
  <path d="M750 260H856" stroke="#84DCC6" stroke-width="8" stroke-linecap="round"/>
  <path d="M750 416H856" stroke="#84DCC6" stroke-width="8" stroke-linecap="round"/>
  <circle cx="430" cy="218" r="10" fill="#7DA6FF"/>
  <circle cx="430" cy="336" r="10" fill="#7DA6FF"/>
  <circle cx="430" cy="454" r="10" fill="#7DA6FF"/>
  <circle cx="856" cy="260" r="10" fill="#84DCC6"/>
  <circle cx="856" cy="416" r="10" fill="#84DCC6"/>
</svg>
